<svg id="Modo_de_aislamiento" data-name="Modo de aislamiento" xmlns="http://www.w3.org/2000/svg" viewBox="0 0 446.75 186.07"><defs><style>.cls-1{fill:#eee;}</style></defs><path class="cls-1" d="M145.64,74.62A38.6,38.6,0,0,0,128.5,59.94Q117.67,55.13,96.86,55L61.48,54.9A20.28,20.28,0,0,0,41.12,75.11l-.31,89.78a20.3,20.3,0,0,0,40.59.16l0-6.78a20.28,20.28,0,0,1,20.36-20.21h2.34q21.67.08,34.71-11.33t13.09-30A39.92,39.92,0,0,0,145.64,74.62ZM97.73,115.67c-4,1.51-15.55,17.88-28,16-8.77-1.33-18-11-16-22.73,1.82-10.72,3.41-27.53,3.67-30.37a7.9,7.9,0,0,1,.12-.83C59,70.21,67.53,64,76.18,64.65c8.19.61,21.43,7.42,27.07,9,1.59.47,19.39,3.65,19.2,19.35C122.25,109,106.26,112.47,97.73,115.67Z"/><path class="cls-1" d="M.43,91c.84,3.11,4.92,18.44,19.11,18.12S39.47,98.54,37,91C33.61,80.63,18.94,72.57,9,74.4-2.21,76.46.07,89.73.43,91Z"/><path class="cls-1" d="M11.58,27a13.4,13.4,0,0,1,1.64-2.32c2.61-3,9.79-9.92,16.73-5.58S50.19,40.14,47.78,52.53s-19,20.72-30.29,14.35C7.26,61.08,1.65,45.14,11.58,27Z"/><path class="cls-1" d="M39.71,14.31S36.62.25,53,0,85.54,10.53,86.25,23.42s-11.92,24.22-26.78,21S39.71,14.31,39.71,14.31Z"/><path class="cls-1" d="M96.82,16.35s5.39-8.58,14.84-4.77,14.69,20,10.22,29c-2.24,4.52-8.84,12.68-18.44,10.93C91.86,49.45,88.93,28.54,96.82,16.35Z"/><path class="cls-1" d="M125.57,183.2q-10,0-16.33-4.46a16,16,0,0,1-7-13.88,25.7,25.7,0,0,1,5.55-16.73q6.18-7.59,16.66-7.58a29.1,29.1,0,0,1,12.07,2.19q6.3,2.88,6.31,9c0,2.86-1.72,5.41-5.14,7.62a68.47,68.47,0,0,1-9.39,4.46l-14.08,5.82a12.68,12.68,0,0,0,4.85,3.05,21.69,21.69,0,0,0,16-1.13,12.49,12.49,0,0,1,5.55-1.92q4.35,0,4.35,4,0,4.46-7,7.27A32.87,32.87,0,0,1,125.57,183.2ZM124.44,150a9.69,9.69,0,0,0-6.64,2.42,16.77,16.77,0,0,0-4.42,7.27l9.39-3.79a70.37,70.37,0,0,0,9-4.42A15.59,15.59,0,0,0,124.44,150Z"/><path class="cls-1" d="M181.82,149.93q-.88,0-2.07-.06t-2.07-.06a30.58,30.58,0,0,0-4,.31q.75,15.8.75,20.65c0,.33,0,1,0,1.89s0,1.68,0,2.25q0,9-6.05,9a6.16,6.16,0,0,1-4-1.33,4.26,4.26,0,0,1-1.84-3.52c0-.93,0-2.34.13-4.22s.12-3.28.12-4.22q0-4.73-.75-20.25c-1.73-.08-4.33-.29-7.83-.65s-5.24-2-5.24-5.06a4.93,4.93,0,0,1,1.59-3.71,5.65,5.65,0,0,1,4.09-1.53q1.55,0,7.1.47,0-1.24-.21-4.14c-.11-1.67-.17-3-.17-3.87a4.56,4.56,0,0,1,1.72-3.64,6.19,6.19,0,0,1,4.13-1.44q6.18,0,6.18,9.73l-.08,3.21a31.83,31.83,0,0,1,4.21-.36,24.18,24.18,0,0,1,6.56.59,4.54,4.54,0,0,1,3.34,4.77,4.8,4.8,0,0,1-1.63,3.71A5.88,5.88,0,0,1,181.82,149.93Z"/><path class="cls-1" d="M215.58,184.11q-10.61,0-16.7-4.42-5.13-3.67-5.14-8.48a5.59,5.59,0,0,1,1.59-4.09,5.86,5.86,0,0,1,4.38-1.62,5.79,5.79,0,0,1,5.52,3.6q2.37,4.8,10.77,4.8A34.39,34.39,0,0,0,229.91,171c4.64-2,7-4.21,7-6.6q0-4.94-4.34-6.49-3.09-1.14-12.41-1.33A35.49,35.49,0,0,1,207.19,154q-7.73-3.25-7.6-9.31.12-7.62,8.69-14a30.9,30.9,0,0,1,18.87-6.36,37.24,37.24,0,0,1,10.1,1.76q7.49,2.19,7.48,5a5,5,0,0,1-1.5,3.6,5.7,5.7,0,0,1-4.31,1.76,32.94,32.94,0,0,1-5.86-.78,32.92,32.92,0,0,0-5.91-.78,23.17,23.17,0,0,0-10.23,2.42q-5,2.43-5,5.28a2.83,2.83,0,0,0,1.52,2.44,11.55,11.55,0,0,0,4.57,1.35l10.65.55q9.27.66,14.66,4.88,5.92,4.7,5.93,13,0,10.09-12.28,15.29A54.56,54.56,0,0,1,215.58,184.11Z"/><path class="cls-1" d="M266.56,165.29c0,1.33.05,3.47.13,6.41s.13,5.08.13,6.41a4.31,4.31,0,0,1-1.45,3.35,5.89,5.89,0,0,1-7.41,0,4.29,4.29,0,0,1-1.46-3.35c0-1.33-.05-3.46-.13-6.41s-.13-5.08-.13-6.41q0-3.12.37-7.81t.37-7.81a4.32,4.32,0,0,1,1.46-3.35,5.89,5.89,0,0,1,7.41,0,4.32,4.32,0,0,1,1.46,3.35q0,3.12-.37,7.81T266.56,165.29Zm-3.18-25.68a6.19,6.19,0,0,1-4.15-1.5,4.73,4.73,0,0,1,0-7.36,6.2,6.2,0,0,1,4.15-1.51,6.14,6.14,0,0,1,4.14,1.51,4.76,4.76,0,0,1,0,7.36A6.13,6.13,0,0,1,263.38,139.61Z"/><path class="cls-1" d="M302.67,156.08q-3.71,0-4.45-2.91a19.37,19.37,0,0,0-3.07-.24q-9,0-9,2.31,0,1.37,5.43,3.68a68.32,68.32,0,0,1,10,5q5.42,3.68,5.42,8.3,0,6-6,9.15a25.7,25.7,0,0,1-11.87,2.48,27.38,27.38,0,0,1-9.09-1.43q-5.61-2-5.61-5.78,0-3.51,4.45-3.51a18.23,18.23,0,0,1,5,1,18.26,18.26,0,0,0,5,1c5.07,0,7.61-1,7.64-2.88q0-1.78-5.28-3.95a79,79,0,0,1-9.88-4.59q-5.28-3.48-5.27-8.45,0-7,8-9.49,4.67-1.44,14.21-1.44a12.92,12.92,0,0,1,5.54.91q2.48,1.23,2.47,4.52Q306.3,156.08,302.67,156.08Z"/><path class="cls-1" d="M340.05,153.52c-.52,0-1.14,0-1.85-.05s-1.33-.05-1.85-.05a25.89,25.89,0,0,0-3.56.28q.68,14.15.68,18.49c0,.31,0,.87,0,1.7s0,1.5,0,2q0,8.06-5.42,8.05a5.52,5.52,0,0,1-3.56-1.19,3.81,3.81,0,0,1-1.64-3.15c0-.84,0-2.1.11-3.78s.11-3,.11-3.79q0-4.23-.67-18.14c-1.55-.07-3.89-.27-7-.58s-4.7-1.83-4.7-4.54a4.46,4.46,0,0,1,1.43-3.33,5.05,5.05,0,0,1,3.66-1.36q1.4,0,6.37.42c0-.75-.09-2-.19-3.71-.1-1.5-.15-2.66-.15-3.47a4.09,4.09,0,0,1,1.53-3.26,5.58,5.58,0,0,1,3.71-1.3q5.53,0,5.53,8.73l-.07,2.87a29.54,29.54,0,0,1,3.78-.32,21.5,21.5,0,0,1,5.87.53,4.07,4.07,0,0,1,3,4.27,4.34,4.34,0,0,1-1.46,3.33A5.28,5.28,0,0,1,340.05,153.52Z"/><path class="cls-1" d="M368.6,183.33q-8.94,0-14.63-4a14.31,14.31,0,0,1-6.28-12.44,23.07,23.07,0,0,1,5-15q5.55-6.79,14.93-6.8a26.09,26.09,0,0,1,10.82,2q5.64,2.58,5.65,8c0,2.57-1.54,4.85-4.6,6.83a60.16,60.16,0,0,1-8.42,4l-12.61,5.22a11.39,11.39,0,0,0,4.34,2.73,19.46,19.46,0,0,0,14.33-1,11.25,11.25,0,0,1,5-1.71q3.9,0,3.9,3.54,0,4-6.25,6.51A29.64,29.64,0,0,1,368.6,183.33Zm-1-29.74a8.74,8.74,0,0,0-5.95,2.17,15.05,15.05,0,0,0-4,6.52c2.82-1.14,5.62-2.28,8.42-3.4a62.18,62.18,0,0,0,8-4A14,14,0,0,0,367.59,153.59Z"/><path class="cls-1" d="M402.28,150.72q5.66-6.14,10.7-6.13,5.76,0,8.46,4.1a15.87,15.87,0,0,1,5.05-2.84,18.44,18.44,0,0,1,6-.95q7.33,0,9.95,6.84a71,71,0,0,1,1.61,9.49q1.05,5.67,2.69,18.92a3.67,3.67,0,0,1-1.45,3.29,5.9,5.9,0,0,1-3.78,1.3c-2.87,0-4.56-1.34-5.06-4-.44-2.4-.91-5.8-1.38-10.19q-.75-7.22-1.23-10.23-1-6.27-2.59-6.27a12.46,12.46,0,0,0-3.93,1.61,28.63,28.63,0,0,0-4.49,2.77,93.66,93.66,0,0,0,1,11.49,92.94,92.94,0,0,1,1.05,11.49,4.3,4.3,0,0,1-1.46,3.33,5.83,5.83,0,0,1-7.41,0,4.34,4.34,0,0,1-1.46-3.33,109.19,109.19,0,0,0-.91-11.76,109.45,109.45,0,0,1-.92-11.75,12.67,12.67,0,0,0-.41-3.57,29.91,29.91,0,0,0-8.72,7.81c-.12.16-.34.41-.63.74-.11,4.71-.16,8.42-.16,11.1,0,.65,0,1.54-.07,2.65s-.07,1.93-.07,2.47a3.37,3.37,0,0,1-1.65,3,6.43,6.43,0,0,1-3.71,1,4.26,4.26,0,0,1-4.3-2.59,14.62,14.62,0,0,1-.79-5.57v-13c0-1.16,0-2.87-.14-5.13s-.15-4-.15-5.13a13,13,0,0,1,1.19-5.64q1.47-3.15,4.12-3.15a5.38,5.38,0,0,1,3.74,1.52,4.51,4.51,0,0,1,1.65,3.35C402.62,147.22,402.51,148.22,402.28,150.72Z"/></svg>