<svg id="Modo_de_aislamiento" data-name="Modo de aislamiento" xmlns="http://www.w3.org/2000/svg" viewBox="0 0 151.92 185.27"><defs><style>.cls-1{fill:#222831;}</style></defs><path class="cls-1" d="M145.64,74.62A38.6,38.6,0,0,0,128.5,59.94Q117.67,55.13,96.86,55L61.48,54.9A20.28,20.28,0,0,0,41.12,75.11l-.31,89.78a20.3,20.3,0,0,0,40.59.16l0-6.78a20.28,20.28,0,0,1,20.36-20.21h2.34q21.67.08,34.71-11.33t13.09-30A39.92,39.92,0,0,0,145.64,74.62ZM97.73,115.67c-4,1.51-15.55,17.88-28,16-8.77-1.33-18-11-16-22.73,1.82-10.72,3.41-27.53,3.67-30.37a7.9,7.9,0,0,1,.12-.83C59,70.21,67.53,64,76.18,64.65c8.19.61,21.43,7.42,27.07,9,1.59.47,19.39,3.65,19.2,19.35C122.25,109,106.26,112.47,97.73,115.67Z"/><path class="cls-1" d="M.43,91c.84,3.11,4.92,18.44,19.11,18.12S39.47,98.54,37,91C33.61,80.63,18.94,72.57,9,74.4-2.21,76.46.07,89.73.43,91Z"/><path class="cls-1" d="M11.58,27a13.4,13.4,0,0,1,1.64-2.32c2.61-3,9.79-9.92,16.73-5.58S50.19,40.14,47.78,52.53s-19,20.72-30.29,14.35C7.26,61.08,1.65,45.14,11.58,27Z"/><path class="cls-1" d="M39.71,14.31S36.62.25,53,0,85.54,10.53,86.25,23.42s-11.92,24.22-26.78,21S39.71,14.31,39.71,14.31Z"/><path class="cls-1" d="M96.82,16.35s5.39-8.58,14.84-4.77,14.69,20,10.22,29c-2.24,4.52-8.84,12.68-18.44,10.93C91.86,49.45,88.93,28.54,96.82,16.35Z"/></svg>